<?xml version="1.0" standalone="no"?>
<!DOCTYPE svg PUBLIC "-//W3C//DTD SVG 20010904//EN"
 "http://www.w3.org/TR/2001/REC-SVG-20010904/DTD/svg10.dtd">
<svg version="1.0" xmlns="http://www.w3.org/2000/svg"
 width="400.000000pt" height="400.000000pt" viewBox="0 0 400.000000 400.000000"
 preserveAspectRatio="xMidYMid meet">

<g transform="translate(0.000000,400.000000) scale(0.100000,-0.100000)"
fill="#000000" stroke="none">
<path d="M2075 3448 c-3 -7 -4 -492 -3 -1078 3 -1057 3 -1065 23 -1065 20 0
20 7 20 1075 0 1016 -1 1075 -18 1078 -9 2 -19 -2 -22 -10z"/>
<path d="M950 2885 c-44 -46 -94 -68 -133 -61 -18 3 -59 24 -92 46 -51 34 -61
37 -68 24 -6 -10 -2 -34 11 -68 17 -43 18 -61 11 -102 -10 -53 -4 -98 17 -129
18 -26 18 -59 -1 -75 -12 -10 -18 -5 -34 32 -47 111 -164 154 -229 85 -29 -30
-39 -99 -18 -116 23 -19 46 -6 46 27 0 35 16 52 51 52 38 0 75 -33 95 -85 9
-25 15 -47 13 -48 -2 -2 -25 -11 -51 -21 -27 -10 -48 -22 -48 -27 0 -5 -6 -9
-13 -9 -8 0 -49 -37 -93 -81 -63 -66 -76 -84 -64 -91 8 -5 42 -25 75 -44 33
-19 50 -32 39 -29 -27 7 -31 -5 -26 -76 l4 -56 214 -102 c118 -55 226 -101
241 -101 15 0 79 24 142 54 64 30 150 70 193 89 l76 35 7 64 c4 34 5 76 3 93
-3 26 2 32 45 55 77 42 76 40 6 129 -35 45 -71 81 -81 81 -9 0 -18 4 -20 9 -4
12 -165 71 -172 63 -3 -3 -2 -10 3 -16 5 -6 12 -22 16 -36 7 -26 -69 97 -87
140 -6 14 -11 87 -12 162 -1 109 -4 140 -16 153 -14 14 -19 12 -50 -20z m-333
-485 c-2 -41 -10 -47 -37 -30 -13 8 -13 10 2 10 10 0 19 11 23 30 9 42 15 37
12 -10z m537 -35 c-22 -17 -34 -19 -34 -6 0 5 8 12 18 14 32 9 36 7 16 -8z
m-444 -45 c8 -5 11 -10 5 -10 -5 0 -17 5 -25 10 -8 5 -10 10 -5 10 6 0 17 -5
25 -10z m200 -89 c0 -5 14 -23 31 -40 17 -17 26 -31 22 -31 -5 0 -20 11 -33
25 -13 14 -29 25 -35 25 -6 0 -46 -42 -89 -94 l-77 -95 -107 56 c-59 31 -114
63 -122 71 -15 15 176 -83 194 -99 18 -16 43 -9 59 15 9 13 41 53 72 90 31 36
53 70 50 76 -3 5 3 10 14 10 12 0 21 -4 21 -9z"/>
<path d="M2951 2811 l24 -19 0 -410 0 -410 -25 -27 -25 -27 180 5 c152 4 189
8 242 26 124 44 230 145 273 258 28 71 37 188 21 266 -36 171 -173 310 -339
346 -29 6 -125 11 -214 11 -159 0 -160 0 -137 -19z m364 -66 c88 -42 165 -120
206 -208 32 -68 34 -78 34 -182 0 -102 -2 -114 -30 -169 -38 -76 -118 -147
-204 -182 -55 -22 -82 -27 -161 -28 l-95 -1 -3 404 -2 403 98 -4 c83 -3 107
-8 157 -33z"/>
<path d="M640 695 l0 -145 38 1 c31 0 33 2 16 9 -20 8 -22 17 -26 132 -2 68 0
125 4 126 12 5 -1 22 -18 22 -11 0 -14 -25 -14 -145z"/>
<path d="M1080 835 c0 -3 -1 -67 -1 -142 l0 -138 67 -3 c37 -2 71 1 77 7 6 6
-5 7 -31 4 -23 -3 -53 -3 -67 1 -25 6 -26 9 -23 69 l3 62 50 6 c43 5 45 6 13
7 -62 3 -68 9 -68 63 0 27 5 49 10 49 6 0 10 5 10 10 0 10 -40 15 -40 5z"/>
<path d="M1448 835 c-7 -8 87 -248 100 -253 5 -1 12 6 15 18 3 11 1 20 -4 20
-10 0 -17 16 -60 135 -26 75 -38 93 -51 80z"/>
<path d="M1889 835 c0 -3 -1 -67 -1 -142 0 -93 3 -138 11 -141 7 -2 11 20 11
72 l0 76 52 0 c61 0 57 13 -5 14 l-42 1 0 63 c0 43 -4 62 -12 62 -7 0 -13 -2
-14 -5z"/>
<path d="M2257 833 c-11 -11 -8 -271 3 -278 22 -13 25 8 22 144 -3 130 -7 153
-25 134z"/>
<path d="M2523 695 l2 -145 25 0 c19 0 21 3 12 12 -8 8 -12 55 -12 145 0 111
-2 133 -15 133 -12 0 -14 -23 -12 -145z"/>
<path d="M2899 833 c-4 -27 5 -58 20 -72 10 -9 35 -55 56 -103 20 -48 41 -85
46 -82 12 7 12 41 0 46 -5 2 -29 50 -53 107 -39 92 -65 132 -69 104z"/>
<path d="M3128 833 c-2 -4 -2 -70 0 -145 3 -111 7 -138 18 -138 12 0 14 24 12
142 -2 96 -7 143 -15 145 -6 2 -13 0 -15 -4z"/>
<path d="M757 810 c46 -28 67 -65 67 -120 0 -57 -23 -96 -67 -115 -18 -8 -26
-14 -19 -15 52 -1 112 70 112 133 0 66 -54 137 -104 137 -18 0 -16 -3 11 -20z"/>
<path d="M3406 815 c-43 -43 -22 -95 50 -124 75 -29 92 -61 58 -109 -8 -12
-11 -22 -5 -22 14 0 51 50 51 70 0 28 -35 64 -76 79 -72 25 -93 63 -57 103 19
22 1 25 -21 3z"/>
<path d="M2895 570 c-3 -5 -1 -10 4 -10 6 0 11 5 11 10 0 6 -2 10 -4 10 -3 0
-8 -4 -11 -10z"/>
<path d="M3395 570 c3 -5 8 -10 11 -10 2 0 4 5 4 10 0 6 -5 10 -11 10 -5 0 -7
-4 -4 -10z"/>
<path d="M2635 560 c-18 -8 -17 -9 7 -9 15 -1 30 4 33 9 7 12 -12 12 -40 0z"/>
</g>
</svg>
